:SAMPLES-PER-SECOND 30
:FRAME-RANGE 1-3549
:FULLY-SPECIFIED
:DEGREES
666
root  68.5136 33.9215 70.8906 17.8773 67.4911 16.8737
RightUpLeg  -37.4365 3.58327 -9.78091
RightLeg  89.2403 0.0863532 9.4341
RightFoot  -15.9455 0.204328 7.76589
RightToes  1.218e-010 1.26228e-014 -6.01869e-014
Spine  11.9367 5.09147 1.32839
Spine1  7.99521 8.29102 -11.0704
HEad  10.9775 40.8662 -17.2673
LeftShoulder1  1.82014 -3.44709 -20.8045
LeftArm  7.52599 -4.77977 -48.2742
LeftForeArm  44.6724 -0.124899 -14.2825
LeftHand  -0.00649635 5.82938 5.13119
RightShoulder  2.5072 6.29776 19.7913
RightArm  -23.9407 27.5871 57.7319
RightForeArm  72.4893 -4.76887 0.91153
RightHand  0.771603 -10.0413 -19.5565
LeftUpLeg  -42.1774 -4.15573 -6.30436
LeftLeg  52.1314 -0.999998 -0.871517
LeftFoot  -10.6713 0.0624823 0.27454
LeftToes  -1.43952e-010 7.51141e-011 -1.22592e-011
667
root  69.7593 34.5394 71.6376 16.76 68.575 16.1089
RightUpLeg  -41.4804 6.34086 -12.4564
RightLeg  80.4901 0.980503 5.35269
RightFoot  -16.9766 0.301668 8.45885
RightToes  1.218e-010 1.26228e-014 -6.01869e-014
Spine  12.1742 4.28916 2.04023
Spine1  6.91412 7.37231 -10.0489
HEad  12.5769 43.5424 -16.9429
LeftShoulder1  1.71552 -3.04221 -20.8788
LeftArm  11.09 -8.32665 -49.6235
LeftForeArm  38.9478 -4.74412 -13.7005
LeftHand  -0.0203565 5.4537 5.74124
RightShoulder  2.42566 5.84089 20.23
RightArm  -25.2139 24.1372 52.5162
RightForeArm  70.8013 -4.89428 1.25641
RightHand  0.945446 -11.3533 -18.6783
LeftUpLeg  -37.9644 -4.9245 -5.51961
LeftLeg  50.5848 -1.1605 -1.02049
LeftFoot  -12.8597 0.0772396 0.00478848
LeftToes  -1.43952e-010 7.51141e-011 -1.22592e-011
668
root  71.0131 35.1368 72.4107 14.9257 70.1679 14.5263
RightUpLeg  -42.9038 9.68187 -15.4198
RightLeg  68.0874 1.10851 2.34499
RightFoot  -16.0947 0.226619 8.08217
RightToes  1.218e-010 1.26228e-014 -6.01869e-014
Spine  12.26 3.50985 3.49956
Spine1  5.72787 6.61725 -9.42643
HEad  13.6973 45.2739 -15.9447
LeftShoulder1  1.73099 -3.27872 -20.0919
LeftArm  17.1731 -10.5757 -51.3893
LeftForeArm  30.7346 -10.7828 -11.7488
LeftHand  -0.0408765 4.99932 5.79689
RightShoulder  2.36222 5.39375 20.9047
RightArm  -25.7717 18.809 47.447
RightForeArm  69.0825 -5.0884 2.00986
RightHand  0.877169 -11.3757 -17.3706
LeftUpLeg  -33.855 -6.1734 -4.31344
LeftLeg  48.8456 -1.30793 -1.12756
LeftFoot  -14.6181 0.0757338 -0.418015
LeftToes  -1.43952e-010 7.51141e-011 -1.22592e-011
669
root  72.2376 35.5352 73.2815 14.7698 72.1691 14.8038
RightUpLeg  -42.0612 14.8167 -20.1334
RightLeg  54.1892 3.18508 4.35481
RightFoot  -15.2642 0.271003 10.9162
RightToes  1.218e-010 1.26228e-014 -6.01869e-014
Spine  11.6058 2.77242 3.69681
Spine1  5.47936 5.77206 -8.61686
HEad  13.1999 46.5207 -15.6975
LeftShoulder1  1.66687 -3.21672 -19.3035
LeftArm  25.5023 -13.0994 -52.9976
LeftForeArm  22.6711 -16.3652 -8.52286
LeftHand  -0.089079 4.16261 6.85727
RightShoulder  2.2686 4.88078 21.4941
RightArm  -26.2994 14.0706 43.2799
RightForeArm  68.2544 -5.17064 2.31008
RightHand  0.854179 -11.1811 -17.486
LeftUpLeg  -30.1188 -7.76959 -3.56298
LeftLeg  47.7493 -1.59867 -1.41736
LeftFoot  -16.4383 0.0633068 -0.792634
LeftToes  -1.43952e-010 7.51141e-011 -1.22592e-011
670
root  73.3991 35.861 74.1771 14.8919 75.0944 15.1723
RightUpLeg  -40.0146 22.3016 -26.3121
RightLeg  40.299 8.33069 7.2487
RightFoot  -15.4208 0.377833 13.502
RightToes  1.218e-010 1.26228e-014 -6.01869e-014
Spine  10.3705 2.12176 4.25489
Spine1  5.72901 4.86781 -7.39817
HEad  12.4146 46.6787 -15.6263
LeftShoulder1  1.73014 -3.64201 -18.6002
LeftArm  30.1884 -15.4799 -54.4356
LeftForeArm  18.2451 -20.0914 -5.72241
LeftHand  -0.0508233 4.77992 5.79684
RightShoulder  2.08034 4.03242 22.1595
RightArm  -26.585 9.80499 39.3428
RightForeArm  67.9849 -5.2092 2.47854
RightHand  0.731584 -10.5325 -16.9573
LeftUpLeg  -26.9345 -9.74263 -2.43238
LeftLeg  46.7461 -2.22038 -2.07049
LeftFoot  -17.9359 0.0434081 -1.11354
LeftToes  -1.43952e-010 7.51141e-011 -1.22592e-011
671
root  74.5396 35.9888 75.1574 19.9157 78.8401 20.2048
RightUpLeg  -38.6726 28.3585 -31.877
RightLeg  32.651 12.0777 8.00653
RightFoot  -12.5636 0.0818999 15.6304
RightToes  1.218e-010 1.26228e-014 -6.01869e-014
Spine  8.71766 1.62205 3.96469
Spine1  6.05726 3.96866 -6.25863
HEad  12.1437 45.7933 -14.6263
LeftShoulder1  1.76762 -3.85457 -18.3676
LeftArm  33.1973 -18.2015 -55.4587
LeftForeArm  16.2716 -22.9333 -4.25721
LeftHand  -0.099063 3.96006 6.76399
RightShoulder  1.88609 3.28788 22.4133
RightArm  -27.6295 4.32566 36.7151
RightForeArm  67.4035 -5.15329 2.01566
RightHand  0.711934 -10.6902 -16.08
LeftUpLeg  -24.6651 -12.5182 -1.68241
LeftLeg  46.414 -3.19203 -3.13676
LeftFoot  -19.7058 -0.0068186 -1.70939
LeftToes  -1.43952e-010 7.51141e-011 -1.22592e-011
672
root  75.5519 35.835 76.2364 36.0403 83.0547 36.1289
RightUpLeg  -36.2595 27.9835 -32.2406
RightLeg  32.0783 14.5928 9.45764
RightFoot  -7.49031 -0.703457 19.2277
RightToes  1.218e-010 1.26228e-014 -6.01869e-014
Spine  7.66488 1.36806 3.17335
Spine1  5.90925 3.20853 -5.17404
HEad  11.3487 43.1804 -14.2024
LeftShoulder1  1.73713 -3.98416 -17.4395
LeftArm  32.6725 -20.7359 -57.4515
LeftForeArm  18.9912 -25.2173 -4.39659
LeftHand  -0.0381189 5.03475 5.23395
RightShoulder  1.65446 2.44719 22.5514
RightArm  -28.8201 -2.4169 35.1236
RightForeArm  65.7021 -5.10938 1.38119
RightHand  0.474166 -9.3053 -14.766
LeftUpLeg  -23.6958 -14.9654 -0.728918
LeftLeg  47.2975 -4.94371 -5.26552
LeftFoot  -22.0625 -0.00819303 -1.49818
LeftToes  -1.43952e-010 7.51141e-011 -1.22592e-011
673
root  76.4754 35.3977 77.4739 93.481 86.1508 93.1312
RightUpLeg  -31.7633 23.7506 -28.3682
RightLeg  33.9048 11.6507 8.09064
RightFoot  -14.7089 0.577683 22.7964
RightToes  1.218e-010 1.26228e-014 -6.01869e-014
Spine  6.78341 1.18182 2.24565
Spine1  5.71387 2.52841 -4.36782
HEad  10.2608 41.3533 -13.5977
LeftShoulder1  1.7212 -4.33611 -16.0188
LeftArm  33.4966 -23.4968 -60.0631
LeftForeArm  21.4647 -26.9255 -4.63799
LeftHand  -0.101615 3.8549 6.51402
RightShoulder  1.41592 1.51717 23.1523
RightArm  -28.0968 -9.54442 34.3147
RightForeArm  63.613 -5.27183 1.89431
RightHand  0.595043 -10.3175 -14.6255
LeftUpLeg  -24.4688 -17.4391 1.61296
LeftLeg  50.123 -7.21188 -8.69563
LeftFoot  -24.9711 0.0114225 -1.15959
LeftToes  -1.43952e-010 7.51141e-011 -1.22592e-011
674
root  77.1794 35.2441 78.4519 148.881 84.0504 147.373
RightUpLeg  -30.5501 20.7908 -25.5829
RightLeg  36.739 9.9312 7.63131
RightFoot  -18.7404 1.24563 21.0269
RightToes  1.218e-010 1.26228e-014 -6.01869e-014
Spine  5.75418 1.35265 3.30977
Spine1  5.69798 2.37812 -3.31849
HEad  7.44251 39.896 -14.5576
LeftShoulder1  1.73022 -4.34734 -16.1114
LeftArm  35.2824 -26.3592 -61.8096
LeftForeArm  24.3457 -28.8255 -4.90899
LeftHand  -0.0882578 4.04636 6.18884
RightShoulder  1.5114 1.68111 24.1677
RightArm  -31.593 -14.8239 34.2769
RightForeArm  65.8755 -4.81715 -0.296454
RightHand  0.296772 -8.329 -12.7399
LeftUpLeg  -26.3138 -20.0063 4.55358
LeftLeg  51.7886 -8.76948 -11.2959
LeftFoot  -25.5871 -0.0416982 -1.56388
LeftToes  -1.43952e-010 7.51141e-011 -1.22592e-011
675
root  77.7805 35.0492 79.4448 167.817 82.6854 165.906
RightUpLeg  -31.6439 19.2953 -21.9434
RightLeg  41.5556 9.06196 8.24859
RightFoot  -20.5193 1.35061 18.4268
RightToes  1.218e-010 1.26228e-014 -6.01869e-014
Spine  6.36228 1.5552 4.89683
Spine1  5.48962 3.08148 -5.12215
HEad  3.85856 41.3463 -17.245
LeftShoulder1  1.68245 -3.90214 -16.9097
LeftArm  35.0423 -27.9047 -63.9539
LeftForeArm  26.3792 -29.3191 -4.91063
LeftHand  -0.0768954 4.31022 6.36667
RightShoulder  1.65967 1.9356 25.6091
RightArm  -33.8371 -14.2858 34.3974
RightForeArm  69.1293 -4.40671 -1.96854
RightHand  0.511179 -10.304 -12.7914
LeftUpLeg  -27.913 -21.3849 8.29112
LeftLeg  54.4751 -9.05225 -12.8616
LeftFoot  -25.7617 -0.286304 -3.48562
LeftToes  -1.43952e-010 7.51141e-011 -1.22592e-011
676
root  78.268 35.368 80.0672 176.378 79.4284 174.394
RightUpLeg  -29.2379 17.2856 -19.218
RightLeg  41.0613 8.02554 7.16244
RightFoot  -20.6867 1.2777 17.2405
RightToes  1.218e-010 1.26228e-014 -6.01869e-014
Spine  6.34352 1.20119 4.09169
Spine1  6.13628 1.85346 -1.85011
HEad  0.475428 45.4055 -19.735
LeftShoulder1  1.66996 -3.50424 -18.189
LeftArm  34.0382 -27.0374 -66.0813
LeftForeArm  26.3458 -28.3092 -4.68292
LeftHand  -0.0987822 4.02175 7.04144
RightShoulder  1.80457 2.40175 25.5756
RightArm  -37.0919 -11.704 35.7602
RightForeArm  74.4809 -3.77203 -4.39329
RightHand  0.664412 -11.6507 -12.9219
LeftUpLeg  -28.2813 -24.901 10.1508
LeftLeg  53.867 -8.41719 -11.6978
LeftFoot  -23.552 -0.478607 -5.79176
LeftToes  -1.43952e-010 7.51141e-011 -1.22592e-011
677
root  78.6851 35.7904 80.56 -179.785 76.7899 177.222
RightUpLeg  -27.6902 15.0459 -17.4731
RightLeg  39.1229 7.54092 6.27284
RightFoot  -20.1116 1.11651 16.2493
RightToes  1.218e-010 1.26228e-014 -6.01869e-014
Spine  5.07376 1.31482 4.57733
Spine1  6.79441 1.92016 -1.75392
HEad  -1.45064 49.7478 -19.9661
LeftShoulder1  1.734 -3.80438 -18.0445
LeftArm  36.4804 -25.8785 -69.0042
LeftForeArm  23.0136 -26.6936 -4.50323
LeftHand  -0.0963613 4.01623 6.79289
RightShoulder  1.68189 1.85978 26.5436
RightArm  -34.692 -10.5489 36.8284
RightForeArm  73.9934 -4.10744 -2.58555
RightHand  0.666834 -12.7336 -11.1693
LeftUpLeg  -29.0374 -26.1729 11.0843
LeftLeg  52.4245 -6.69398 -8.7774
LeftFoot  -21.2543 -0.316634 -5.11792
LeftToes  -1.43952e-010 7.51141e-011 -1.22592e-011
678
root  79.0521 36.3498 80.9142 -177.686 75.5316 178.391
RightUpLeg  -26.0418 13.7911 -16.1503
RightLeg  35.7477 7.26672 5.34417
RightFoot  -18.4993 0.847481 15.4804
RightToes  1.218e-010 1.26228e-014 -6.01869e-014
Spine  4.47523 1.7365 5.30297
Spine1  6.46746 2.51668 -2.39987
HEad  -2.75812 54.8376 -20.1839
LeftShoulder1  1.75725 -3.761 -18.5621
LeftArm  38.3294 -23.3495 -70.2689
LeftForeArm  24.065 -26.3603 -4.37388
LeftHand  -0.0677295 4.29684 5.2117
RightShoulder  1.72741 2.01882 26.4266
RightArm  -32.113 -10.3638 38.9561
RightForeArm  72.8748 -4.50749 -0.529511
RightHand  0.639487 -11.2613 -13.2546
LeftUpLeg  -28.1714 -24.1562 10.6425
LeftLeg  49.5118 -4.40574 -5.06065
LeftFoot  -21.0531 -0.208411 -3.93814
LeftToes  -1.43952e-010 7.51141e-011 -1.22592e-011
